<svg width="18" height="20" viewBox="0 0 18 20" fill="none" xmlns="http://www.w3.org/2000/svg">
<path d="M15.625 2.5H13.75V0.46875C13.75 0.210938 13.5391 0 13.2812 0H11.7188C11.4609 0 11.25 0.210938 11.25 0.46875V2.5H6.25V0.46875C6.25 0.210938 6.03906 0 5.78125 0H4.21875C3.96094 0 3.75 0.210938 3.75 0.46875V2.5H1.875C0.839844 2.5 0 3.33984 0 4.375V18.125C0 19.1602 0.839844 20 1.875 20H15.625C16.6602 20 17.5 19.1602 17.5 18.125V4.375C17.5 3.33984 16.6602 2.5 15.625 2.5ZM15.3906 18.125H2.10938C1.98047 18.125 1.875 18.0195 1.875 17.8906V6.25H15.625V17.8906C15.625 18.0195 15.5195 18.125 15.3906 18.125Z" fill="#6763FD"/>
</svg>
