<svg width="15" height="19" viewBox="0 0 15 19" fill="none" xmlns="http://www.w3.org/2000/svg">
<path d="M8.38063 14.5881L14.5881 8.38063C14.8518 8.11691 15 7.75923 15 7.38627L15 1.40625C15 0.62959 14.3704 0 13.5938 0L7.61373 0C7.24077 1.95022e-06 6.88309 0.148161 6.61937 0.411885L0.411884 6.61937C-0.137285 7.16851 -0.137315 8.0589 0.411884 8.6081L6.3919 14.5881C6.94107 15.1373 7.83146 15.1373 8.38063 14.5881ZM10.3125 3.28125C10.3125 2.50459 10.9421 1.875 11.7188 1.875C12.4954 1.875 13.125 2.50459 13.125 3.28125C13.125 4.05791 12.4954 4.6875 11.7188 4.6875C10.9421 4.6875 10.3125 4.05791 10.3125 3.28125ZM6.3919 18.3381L0.411884 12.3581C-0.137285 11.8089 -0.137285 10.9185 0.411884 10.3694L0.422432 10.3588L5.52182 15.4582C6.01983 15.9562 6.68197 16.2305 7.38627 16.2305C8.09057 16.2305 8.75271 15.9562 9.25072 15.4582L15 9.7089V11.1363C15 11.5092 14.8518 11.8669 14.5881 12.1306L8.38063 18.3381C7.83146 18.8873 6.94107 18.8873 6.3919 18.3381Z" fill="#6763FD"/>
</svg>
