<svg width="23" height="20" viewBox="0 0 23 20" fill="none" xmlns="http://www.w3.org/2000/svg">
<path d="M8.39961 2.7754L4.92422 6.25001H0.9375C0.419531 6.25001 0 6.66954 0 7.18751V12.8125C0 13.3301 0.419531 13.75 0.9375 13.75H4.92422L8.39961 17.2246C8.98672 17.8117 10 17.3992 10 16.5617V3.43829C10 2.60001 8.98594 2.18907 8.39961 2.7754ZM17.5137 0.780084C17.0773 0.493756 16.491 0.614459 16.2047 1.05157C15.918 1.4879 16.0398 2.07422 16.4762 2.36055C19.0648 4.05938 20.6098 6.91524 20.6098 10.0004C20.6098 13.0856 19.0648 15.9414 16.4762 17.6402C16.0398 17.9262 15.918 18.5129 16.2047 18.9488C16.4797 19.3672 17.0613 19.5176 17.5137 19.2203C20.6355 17.1711 22.5 13.7238 22.5 10C22.5 6.27618 20.6355 2.8293 17.5137 0.780084ZM18.75 10C18.75 7.51836 17.4977 5.23672 15.3996 3.89688C14.9625 3.61797 14.3828 3.74766 14.1059 4.18829C13.8289 4.62891 13.9582 5.21211 14.3953 5.49141C15.948 6.48321 16.875 8.16837 16.875 10C16.875 11.8316 15.948 13.5168 14.3953 14.5086C13.9582 14.7875 13.8289 15.3707 14.1059 15.8117C14.3602 16.2164 14.9309 16.4031 15.3996 16.1031C17.4977 14.7633 18.75 12.482 18.75 10ZM13.2121 6.99727C12.7598 6.75001 12.1891 6.9129 11.9383 7.36641C11.6887 7.81993 11.8539 8.38985 12.3074 8.64024C12.8117 8.91719 13.125 9.43868 13.125 10C13.125 10.5617 12.8117 11.0828 12.3078 11.3598C11.8543 11.6102 11.6891 12.1801 11.9387 12.6336C12.1898 13.0891 12.7609 13.2508 13.2125 13.0027C14.3152 12.3953 15.0004 11.2449 15.0004 9.99962C15.0004 8.7543 14.3152 7.6043 13.2121 6.99727Z" fill="black"/>
</svg>
