<svg width="200" height="46" viewBox="0 0 200 46" fill="none" xmlns="http://www.w3.org/2000/svg">
<path d="M0 9.36914H7.84527C12.8696 9.36914 16.9212 11.1662 16.9212 16.7145C16.9212 22.0816 12.8236 24.456 7.98486 24.456H5.16246V32.2026H0V9.36914ZM7.68011 20.3576C10.5193 20.3576 11.8618 19.0926 11.8618 16.7145C11.8618 14.3248 10.3337 13.4683 7.53979 13.4683H5.16246V20.3576H7.68011Z" fill="#273F48"/>
<path d="M19.0859 14.8226H23.2874L23.6586 17.8605H23.7865C25.0516 15.5395 26.9524 14.4023 28.7246 14.4023C29.7178 14.4023 30.2951 14.5302 30.7979 14.7524L29.94 19.1979C29.3217 19.0452 28.8109 18.9173 28.0647 18.9173C26.7536 18.9173 25.1634 19.7621 24.236 22.1329V32.2049H19.0859V14.8226Z" fill="#273F48"/>
<path d="M30.8081 23.52C30.8081 17.881 34.8312 14.4023 39.0064 14.4023C43.9576 14.4023 46.4095 18.0009 46.4095 22.7453C46.4095 23.6727 46.294 24.6008 46.1954 25.021H35.7974C36.2592 27.5424 37.9854 28.7 40.305 28.7C41.6205 28.7 42.8029 28.3002 44.0643 27.5621L45.7671 30.6673C43.9861 31.8995 41.6607 32.6252 39.6005 32.6252C34.6456 32.6252 30.8081 29.2744 30.8081 23.52ZM42.01 21.6155C42.01 19.7044 41.1783 18.3268 39.1218 18.3268C37.4943 18.3268 36.0897 19.4186 35.7396 21.6155H42.01Z" fill="#273F48"/>
<path d="M47.9663 30.1967L50.2801 26.9884C51.855 28.1796 53.31 28.8154 54.7643 28.8154C56.299 28.8154 56.9604 28.2308 56.9604 27.3202C56.9604 26.175 55.2379 25.6554 53.4489 24.9545C51.3178 24.1309 48.8491 22.7168 48.8491 19.844C48.8491 16.6079 51.4801 14.4023 55.49 14.4023C58.1531 14.4023 60.1358 15.4781 61.6157 16.6036L59.3107 19.6963C58.0742 18.7974 56.8544 18.2121 55.6508 18.2121C54.3207 18.2121 53.6652 18.7331 53.6652 19.6006C53.6652 20.7085 55.2934 21.1353 57.0942 21.7887C59.2954 22.6021 61.7765 23.8415 61.7765 27.0191C61.7765 30.1616 59.2917 32.6252 54.6364 32.6252C52.3475 32.6244 49.7261 31.6312 47.9663 30.1967Z" fill="#273F48"/>
<path d="M63.3145 30.1967L65.6319 26.9884C67.206 28.1796 68.6611 28.8154 70.1154 28.8154C71.6501 28.8154 72.3115 28.2308 72.3115 27.3202C72.3115 26.175 70.589 25.6554 68.7999 24.9545C66.6696 24.1309 64.2009 22.7168 64.2009 19.844C64.2009 16.6079 66.8319 14.4023 70.8418 14.4023C73.5049 14.4023 75.4876 15.4781 76.9675 16.6036L74.6625 19.6963C73.426 18.7974 72.2055 18.2121 71.0026 18.2121C69.6718 18.2121 69.017 18.7331 69.017 19.6006C69.017 20.7085 70.6445 21.1353 72.446 21.7887C74.6464 22.6021 77.1275 23.8415 77.1275 27.0191C77.1275 30.1616 74.6464 32.6252 69.9882 32.6252C67.6964 32.6244 65.075 31.6312 63.3145 30.1967Z" fill="#273F48"/>
<path d="M87.8076 9.36914H95.6529C100.677 9.36914 104.73 11.1662 104.73 16.7145C104.73 22.0816 100.632 24.456 95.7932 24.456H92.9701V32.2026H87.8076V9.36914ZM95.4877 20.3576C98.3269 20.3576 99.6702 19.0926 99.6702 16.7145C99.6702 14.3248 98.1413 13.4683 95.3481 13.4683H92.9701V20.3576H95.4877Z" fill="#273F48"/>
<path d="M106.894 26.8028V7.65918H112.044V27.0126C112.044 28.1175 112.555 28.4683 112.975 28.4683C113.188 28.474 113.4 28.4494 113.606 28.3953L114.221 32.1955C113.651 32.4388 112.806 32.6245 111.635 32.6245C108.102 32.6245 106.894 30.3195 106.894 26.8028Z" fill="#273F48"/>
<path d="M114.496 27.3838C114.496 23.7217 117.409 21.739 124.284 21.014C124.181 19.4932 123.422 18.5007 121.536 18.5007C120.074 18.5007 118.623 19.1146 116.937 20.0713L115.109 16.6898C117.315 15.3422 119.801 14.4023 122.533 14.4023C126.977 14.4023 129.439 16.9412 129.439 22.2673V32.2064H125.236L124.865 30.4261H124.737C123.276 31.7116 121.634 32.6266 119.681 32.6266C116.507 32.6252 114.496 30.3121 114.496 27.3838ZM124.284 27.155V24.117C120.622 24.6118 119.427 25.6583 119.427 26.9723C119.427 28.0927 120.197 28.6408 121.422 28.6408C122.587 28.6422 123.37 28.0634 124.284 27.155Z" fill="#273F48"/>
<path d="M130.709 38.6504L131.625 34.7252C131.946 34.8071 132.42 34.9445 132.794 34.9445C134.493 34.9445 135.386 34.0097 135.836 32.6621L136.095 31.7559L129.39 14.8223H134.564L137.049 22.3021C137.552 23.8763 137.964 25.525 138.422 27.2271H138.562C138.949 25.5827 139.336 23.934 139.769 22.3021L141.878 14.8223H146.811L140.776 32.3932C139.127 36.7466 137.268 39.0005 133.187 39.0005C132.348 39.0147 131.512 38.8966 130.709 38.6504Z" fill="#273F48"/>
<path d="M200 22.8216C200 29.2154 198.408 35.4412 195.396 40.8259C194.728 42.0209 193.989 43.1747 193.184 44.2811C192.762 44.8613 192.14 45.2648 191.438 45.4141C190.737 45.5633 190.005 45.4477 189.383 45.0894L189.345 45.0668C188.992 44.8622 188.686 44.5855 188.447 44.2548C188.208 43.9241 188.041 43.5467 187.958 43.1473C187.874 42.7479 187.876 42.3354 187.962 41.9367C188.049 41.538 188.219 41.162 188.46 40.8332C189.126 39.9168 189.736 38.9614 190.287 37.972C192.812 33.4571 194.147 28.2186 194.147 22.8216C194.147 17.5597 192.874 12.4331 190.466 7.99484C189.833 6.82739 189.12 5.70598 188.329 4.63895C188.088 4.31051 187.918 3.93472 187.832 3.53616C187.745 3.13761 187.744 2.72528 187.828 2.32617C187.911 1.92706 188.079 1.55017 188.318 1.22016C188.558 0.890162 188.865 0.61449 189.218 0.411196L189.257 0.38854C189.874 0.0321753 190.602 -0.0844067 191.3 0.0610266C191.998 0.20646 192.618 0.603733 193.042 1.17709C193.989 2.45899 194.845 3.8055 195.605 5.20679C198.483 10.4986 200 16.5892 200 22.8216Z" fill="#E2514C"/>
<path d="M187.766 22.9009C187.766 26.8611 186.778 30.7206 184.909 34.0626C184.266 35.2152 183.516 36.3047 182.668 37.3169C182.23 37.837 181.622 38.186 180.952 38.3028C180.281 38.4196 179.591 38.2967 179.003 37.9556L178.963 37.933C178.596 37.7208 178.28 37.4309 178.038 37.0836C177.795 36.7363 177.631 36.3401 177.558 35.9228C177.484 35.5055 177.503 35.0771 177.613 34.6679C177.723 34.2587 177.921 33.8784 178.193 33.5539C178.804 32.8235 179.344 32.0374 179.806 31.2058C181.188 28.7342 181.919 25.8614 181.919 22.898C181.919 20.0091 181.222 17.1976 179.904 14.7677C179.376 13.7915 178.744 12.8762 178.017 12.0381C176.812 10.6539 177.148 8.51995 178.738 7.60205L178.78 7.57793C179.362 7.24294 180.042 7.12036 180.704 7.23112C181.366 7.34188 181.97 7.67912 182.411 8.18523C185.798 12.0585 187.766 17.3065 187.766 22.9009Z" fill="#E2514C"/>
<path d="M170.122 32.3978C169.398 32.3983 168.685 32.2112 168.055 31.8548L168.017 31.8329L159.746 27.0578C158.975 26.6128 158.336 25.9728 157.891 25.2022C157.446 24.4315 157.211 23.5573 157.211 22.6674C157.211 21.7775 157.446 20.9033 157.891 20.1327C158.336 19.362 158.975 18.722 159.746 18.2771L168.02 13.4997C168.156 13.4215 168.297 13.3492 168.437 13.2842C169.526 12.7806 170.702 12.7726 171.747 13.2527C173.238 13.9412 174.316 15.5351 175.043 18.1265C176.139 22.0334 175.735 26.259 173.909 30.0249C173.564 30.7361 173.026 31.3359 172.356 31.7555C171.686 32.1752 170.912 32.3978 170.121 32.3978H170.122ZM162.376 22.6678L169.695 26.8933C170.619 24.5102 170.777 21.8675 170.115 19.5048C170.014 19.1318 169.89 18.7656 169.742 18.4086L162.376 22.6678Z" fill="#E2514C"/>
</svg>
